<svg xmlns="http://www.w3.org/2000/svg" viewBox="0 0 91.22 52.43"><defs><style>.cls-1{fill:#221d43;}</style></defs><title>graffiti2</title><g id="Layer_2" data-name="Layer 2"><g id="elevator"><path class="cls-1" d="M2.4,20.47l-.82-2.89C1.39,17,1.19,16.43,1,15.92a4.24,4.24,0,0,0-1-1.74v0l.69-.05c.89-.17,1.37-.11,1.42.17A18.79,18.79,0,0,1,4.2,19.52l.1.17-.06,0,.12.21,0,.32v.06l.07.05,0,.36.17,1.08.15,1.1-.52.1H4.22l-.08,0a3.78,3.78,0,0,0-1,.55v-.05L3,23.41l-.22-.9v-.32l-.08,0,0-.36,0-.07-.07,0,0-.19C2.57,21.13,2.48,20.8,2.4,20.47Z"/><path class="cls-1" d="M5,16l.37,0,.06.06L5.49,16h.17l.07,0H5.8l0-.06.06,0v.07l-1.49.65-.44,0-.48,0v-.11Zm1.84,5.44A2.31,2.31,0,0,1,4.7,20a2.43,2.43,0,0,1-.26-1,2.26,2.26,0,0,1,.69-1.66H5.2c.71.24,1.08.5,1.1.78L6,19.16a1.48,1.48,0,0,0,1,1.28c.31-.21.36-.62.17-1.25a4.05,4.05,0,0,0-1.63-2.05c-.58-.12-.87-.23-.88-.31a7.15,7.15,0,0,1,1.62-.71h.12a3.73,3.73,0,0,1,2.35,2l.16.48H8.86a2.35,2.35,0,0,1-.47,2.19A1.94,1.94,0,0,1,6.83,21.44Z"/><path class="cls-1" d="M12.71,19.62a29.72,29.72,0,0,1,.44,3l-.71-.06-.86.15-.24-1.41a16.76,16.76,0,0,0-2.62-7.11v0A12.13,12.13,0,0,0,7.94,13l0-.13c0-.39.56-.7,1.74-.91.39,0,.7.26.92.87h.08a16.75,16.75,0,0,0,6.06,3.91,2.65,2.65,0,0,1,1,.8c0,.61-.81,1.13-2.53,1.56.32.54.67,1.09,1,1.64a18.12,18.12,0,0,0,2.46,2.62,8.51,8.51,0,0,0,3.84,2v.06l-.06.07-.06-.06L22,25.5l-.23,0-1.23.14a6.76,6.76,0,0,1-3.76-1.73,13.46,13.46,0,0,1-2.82-3.51,4.59,4.59,0,0,1-.56-1Zm-1.24-4c0,.12.09.25.13.39a15.47,15.47,0,0,1,.93,2.77L14,18.59c.72-.2,1.11-.44,1.18-.72,0-.5-.44-.85-1.2-1.06,0-.07-.22-.15-.64-.27A13.59,13.59,0,0,1,11.47,15.64Z"/><path class="cls-1" d="M27.35,16.16a12,12,0,0,0-5,3.05l-.74.91L20,20.23c-.07,0-.12-.06-.13-.19l.06-.05c-.17-1.51-.4-2.26-.7-2.24l-.58-.33v-.07c0-.06.15-.17.47-.33l0-.13a3.85,3.85,0,0,0-.69-1.12l-.6.17-.15-.31.06-.06V15.5l-.1-.54V14.9l.12-.13.07.06a14.25,14.25,0,0,0,3.86-1.37,8.46,8.46,0,0,0,2.65-1.85l.8.94v.12a13,13,0,0,1-5.25,2.69v.13l.54.7h.12a13.65,13.65,0,0,1,3.66-1.72l.71.56v.07a9.13,9.13,0,0,1-1.75.72L20.8,17a6.15,6.15,0,0,0,.5,1.13,15.47,15.47,0,0,1,5.26-2.69l1-.31c.43,0,.63.29.62.79l-.45.18Z"/><path class="cls-1" d="M29.75,8.78c1.62.23,2.43.45,2.45.64a22.24,22.24,0,0,0,2.6,4.82,16.64,16.64,0,0,0,2.46,2.62,8.37,8.37,0,0,0,3.84,2v.07L41,19,41,18.9l-.43.08-.24,0-1.22.14a6.84,6.84,0,0,1-3.76-1.73A13.31,13.31,0,0,1,32.5,13.9a3.44,3.44,0,0,1-.58-1.06h-.06V13a11.33,11.33,0,0,1,.57,2.87,5.46,5.46,0,0,1-.18,2l-1.95.31c-.57-.73-1.33-1.58-2.27-2.56l.08.3.07,1.1a5.36,5.36,0,0,1-.14,1.44h.05c0,.16-.1.25-.22.26l-1.62-.14H26.2v-.08l.18-2-.07-.24,0-.19-.07-.18v-.12h.06L26,13.6h.05a2.41,2.41,0,0,1-.17-.85h.06a7.78,7.78,0,0,1,1.75-.55,9.84,9.84,0,0,0,2.48,2.86l.13.11h.12l.06-.93a18.69,18.69,0,0,0-1.29-4.55h-.06A3.14,3.14,0,0,1,29.75,8.78Z"/><path class="cls-1" d="M44.51,9.75c-.84.25-1.38,0-1.61-.67s-.11-.9.53-1.05l.4,0c.42-.18.77.07,1.07.75C45.05,9.26,44.92,9.6,44.51,9.75Zm.89,1.66c.16.84.34,1.58.52,2.22l.43.83.11,0,0-.11,1.68-.46v.05a4.59,4.59,0,0,0-.21,1.45l-.29.1a4.3,4.3,0,0,0-1.34,1c-.38.14-.92-.37-1.64-1.5l-.45-.9,0-.07-.17-.26,0-.12.05-.08-.08,0-.35-1.12,0-.06-.21-1.15,2-.79Z"/><path class="cls-1" d="M50.43,13A32.86,32.86,0,0,1,51,16.56l-.71-.07-.86.15-.24-1.41a18.78,18.78,0,0,0-2.75-7.62v0c-.32-.52-.58-.9-.78-1.16V6.29c0-.4.56-.71,1.73-.92q.6,0,.93.87h.08a16.57,16.57,0,0,0,6,3.91,2.65,2.65,0,0,1,1,.8q.06.92-2.52,1.56l-1.82.3ZM49.19,9q.06.18.12.39a15.45,15.45,0,0,1,.94,2.77L51.71,12q1.08-.3,1.17-.72c0-.5-.43-.85-1.2-1.06,0-.07-.21-.15-.64-.26A14.54,14.54,0,0,1,49.19,9Z"/><path class="cls-1" d="M67.58,15.62C66.56,16.41,66,17,66,17.4h-.13L64,17.22V17.1L64,16.73a10.63,10.63,0,0,0,.46-3.36,3.14,3.14,0,0,0-.79-1.81l-.76-.12v.05l-.19-.05v-.18a9,9,0,0,1,1.85-.86,2.43,2.43,0,0,1,1.61,1A5.4,5.4,0,0,1,66.48,13a5.76,5.76,0,0,1-.4,2.32,12.4,12.4,0,0,0,2.24-2.63c1.47-2,2.25-3.36,2.36-4.17V8.44c-.07-.16-.26-.22-.58-.2h-.3l-.38.09-.05-.06h-.06a53.39,53.39,0,0,0-7,2.37c-3.7,2.1-6,3.19-7,3.26a.81.81,0,0,1-.75-.27h-.07l0-.61.1-.37a4.56,4.56,0,0,1,.63-1.59A12.69,12.69,0,0,1,57.33,8,24.13,24.13,0,0,1,60.19,4.7l2.19-.52v.19A19.94,19.94,0,0,0,58.9,7.61,23.06,23.06,0,0,0,56,11.52v.13c0,.11.17.17.37.16A7.19,7.19,0,0,0,59,11.08l.06.05h.06q6.51-2.54,9.16-3.38l2.08-.33.3,0,.93.07A1.76,1.76,0,0,1,72.75,8.8C72.75,9.87,71,12.15,67.58,15.62Zm-2.41-12L64.3,6.21l-.68,1.71-2.37.66-.06-.06V8.4a9.07,9.07,0,0,0,1.41-2.93l0-.07A4.78,4.78,0,0,1,63.1,4Z"/><path class="cls-1" d="M75.25,5.33A11.9,11.9,0,0,1,75,9.08c-.45,1.09-1,1.65-1.5,1.7l-.57.05c-.51,0-1.14-.46-1.89-1.49a7.73,7.73,0,0,1-1-2.76V6.46c0-.3.26-.47.85-.52l.91-.38.07.05L72,7a3.76,3.76,0,0,0,1.2,2.3l.19.05a3.82,3.82,0,0,0,.45-1.55l-.11-1.26a6.86,6.86,0,0,0-.85-2.64V3.77c.11-.44.58-.69,1.39-.76l.5,0C75,3.16,75.15,3.94,75.25,5.33Z"/><path class="cls-1" d="M79.87,0c1.62.23,2.44.44,2.45.64a22.69,22.69,0,0,0,2.6,4.82,17.17,17.17,0,0,0,2.47,2.62,8.44,8.44,0,0,0,3.83,2v.06l-.06.07-.06-.06-.44.09-.23,0-1.23.15a6.85,6.85,0,0,1-3.75-1.73,13.5,13.5,0,0,1-2.83-3.52,3.56,3.56,0,0,1-.57-1.07H82l0,.13A11.24,11.24,0,0,1,82.56,7a5.51,5.51,0,0,1-.18,2l-1.95.3c-.57-.72-1.32-1.57-2.27-2.55l.08.3.08,1.1a6.25,6.25,0,0,1-.14,1.43h0c0,.17-.11.26-.22.27l-1.63-.15h-.06V9.67l.17-2-.07-.24,0-.2L76.39,7V6.89h.06l-.32-2.08h.06A2.34,2.34,0,0,1,76,4h.06a8.4,8.4,0,0,1,1.76-.55,9.65,9.65,0,0,0,2.47,2.86l.14.11h.11l.06-.92A17.68,17.68,0,0,0,79.31.9h-.06A3,3,0,0,1,79.87,0Z"/><path class="cls-1" d="M30.23,28.17l0-.24-.09-.62h.05a15.07,15.07,0,0,0-1.37-4,31.74,31.74,0,0,0-2.13-3.2l0-.12c0-.4.56-.7,1.74-.91.39,0,.7.26.92.87l.74.87a15.55,15.55,0,0,0,3.83,2.83,32,32,0,0,0,7.17,3,2.75,2.75,0,0,1,1,.8q.07,1.17-6.11,2a16.46,16.46,0,0,0-3.67,1.35,4.54,4.54,0,0,0-1.13-.18L30,30.59v-.05l.15-.63.11-1.06Zm-.6-5.39v.06A3,3,0,0,1,31,24.29a9.61,9.61,0,0,1,1.15,4.06l0,.31a5.29,5.29,0,0,1,2-1.3l1.26.4v.18a9.06,9.06,0,0,0-2.38,1.33v.07h.06l2.73-.8v.07l1.28-.34v.07a3.75,3.75,0,0,0,2-.69c0-.5-1.52-1.18-4.45-2.05,0-.07-.22-.15-.64-.27a18.66,18.66,0,0,1-4-2.38Zm5.28,4.34,1.26.35v.18l-.19,0-.23.07-1.33-.34,0-.19Z"/><path class="cls-1" d="M42.11,23.77l.38,0,.06.06.06-.07h.18l.07.05h.06l.06-.06.06.05v.06l-1.49.66-.45,0-.47,0,0-.12ZM44,29.21a2.35,2.35,0,0,1-2.14-1.47,2.54,2.54,0,0,1-.25-1,2.28,2.28,0,0,1,.69-1.67h.06c.72.24,1.08.51,1.11.78l-.31,1.08a1.48,1.48,0,0,0,1,1.28c.3-.2.36-.62.17-1.24a4,4,0,0,0-1.63-2.05c-.58-.13-.88-.23-.88-.32a6.87,6.87,0,0,1,1.62-.71h.12a3.75,3.75,0,0,1,2.35,2l.16.48-.06,0a2.39,2.39,0,0,1-.47,2.19A2,2,0,0,1,44,29.21Z"/><path class="cls-1" d="M47.46,26.84,46.64,24c-.19-.59-.39-1.14-.59-1.65a4.1,4.1,0,0,0-1-1.74V20.5l.69-.05c.89-.16,1.37-.11,1.42.17a18.79,18.79,0,0,1,2.09,5.27l.11.17-.06,0,.11.21,0,.32v.06l.08,0,0,.37.16,1.07.15,1.11-.52.09-.06,0-.08-.05a4,4,0,0,0-1,.55v-.05l-.09,0-.21-.89v-.33l-.08,0,0-.36,0-.07L47.69,28l0-.19C47.63,27.5,47.55,27.17,47.46,26.84Z"/><path class="cls-1" d="M50.05,22.38l.37,0,.07.06.06-.07h.17l.08.05h.06l0-.06.06.05v.06l-1.49.65-.44,0-.48,0V23Zm1.84,5.44a2.34,2.34,0,0,1-2.13-1.47,2.39,2.39,0,0,1-.25-1,2.23,2.23,0,0,1,.68-1.67h.07c.71.24,1.08.51,1.1.78l-.3,1.08a1.47,1.47,0,0,0,1,1.28c.31-.2.36-.62.17-1.25a4,4,0,0,0-1.62-2c-.59-.13-.88-.23-.89-.32a7.15,7.15,0,0,1,1.62-.71h.12a3.77,3.77,0,0,1,2.36,2L54,25h-.06a2.37,2.37,0,0,1-.47,2.2A2,2,0,0,1,51.89,27.82Z"/><path class="cls-1" d="M57.77,26a29.1,29.1,0,0,1,.44,3L57.5,29l-.86.15L56.4,27.7a16.76,16.76,0,0,0-2.62-7.11v0c-.32-.52-.58-.9-.78-1.16v-.12c0-.4.55-.7,1.73-.92.4,0,.7.27.92.87h.08a16.62,16.62,0,0,0,6.06,3.91,2.65,2.65,0,0,1,1,.8c0,.61-.81,1.13-2.53,1.56.33.54.68,1.09,1.05,1.64a17.62,17.62,0,0,0,2.46,2.62,8.51,8.51,0,0,0,3.84,2v.06l-.06.07-.06-.06-.44.09-.23,0L65.56,32a6.91,6.91,0,0,1-3.76-1.73A13.64,13.64,0,0,1,59,26.79a4.37,4.37,0,0,1-.56-1Zm-1.23-4,.12.39a15.47,15.47,0,0,1,.93,2.77L59.06,25c.71-.2,1.11-.43,1.17-.71,0-.51-.43-.86-1.2-1.07,0-.06-.22-.15-.64-.26A13.9,13.9,0,0,1,56.54,22Z"/><path class="cls-1" d="M30.53,50.65c-1,.79-1.56,1.38-1.61,1.78h-.13L27,52.25v-.12l-.09-.37a10.63,10.63,0,0,0,.46-3.36,3.15,3.15,0,0,0-.79-1.8l-.76-.13v.05l-.19-.05v-.18a9,9,0,0,1,1.85-.86,2.47,2.47,0,0,1,1.61,1A5.4,5.4,0,0,1,29.43,48,5.62,5.62,0,0,1,29,50.33a12.11,12.11,0,0,0,2.25-2.63q2.19-3,2.36-4.17v-.06c-.07-.15-.26-.22-.58-.2h-.31l-.37.09-.05-.06h-.06a53.39,53.39,0,0,0-7,2.37c-3.7,2.1-6,3.19-7,3.26a.81.81,0,0,1-.75-.27h-.07l0-.61.1-.37a4.56,4.56,0,0,1,.63-1.59A12.82,12.82,0,0,1,20.27,43a24.53,24.53,0,0,1,2.87-3.28l2.19-.52v.19a19.39,19.39,0,0,0-3.49,3.25A22.71,22.71,0,0,0,19,46.55v.13c0,.12.17.17.37.16a7.24,7.24,0,0,0,2.55-.73l.06,0H22q6.51-2.53,9.16-3.38l2.07-.33.31,0,.93.07a1.77,1.77,0,0,1,1.2,1.34Q35.71,45.45,30.53,50.65Zm-2.41-12-.87,2.64L26.56,43l-2.37.66-.05,0v-.13a8.78,8.78,0,0,0,1.4-2.93l.06-.07a5,5,0,0,1,.46-1.38Z"/><path class="cls-1" d="M34.24,40.09c-.84.25-1.38,0-1.62-.67s-.1-.9.54-1.05l.4,0c.41-.18.77.07,1.07.75C34.77,39.6,34.65,39.94,34.24,40.09Zm.88,1.66c.17.84.34,1.58.53,2.22l.43.83.11,0,0-.11,1.68-.46v.05a4.57,4.57,0,0,0-.2,1.45l-.29.1a4.14,4.14,0,0,0-1.34,1c-.38.13-.93-.37-1.65-1.51l-.44-.89,0-.08-.17-.25,0-.12,0-.08-.08,0-.35-1.13,0,0-.21-1.15,2-.79Z"/><path class="cls-1" d="M36.69,38.19c1.22-.17,1.83-.31,1.82-.43q.08-1.07.42-1.08l1.77-.42v.06l-.18,1h0A26.55,26.55,0,0,0,44.5,36v0l2.26-1.13.07.06V35c-.22.88-.45,1.32-.72,1.34A21.38,21.38,0,0,1,41,38.52c-.58.09-.85.31-.82.67l-.45,1.7c-.06.85-.1,1.61-.1,2.28l.2.92.11,0V44l1.73,0V44a4.51,4.51,0,0,0-.59,1.33l-.3,0a4.16,4.16,0,0,0-1.56.6c-.4,0-.79-.61-1.18-1.89l-.19-1,.06-.07-.09-.3v-.12l.06-.07-.06-.06,0-1.17v-.06l.17-2-.37,0h-.25l-.3.08-.13,0-.05-.07-.45.11L36,39.25l-.11-.44C35.94,38.44,36.21,38.23,36.69,38.19Z"/><path class="cls-1" d="M50.1,35.52a4.12,4.12,0,0,0,1.68.19v-.05l.07,0h.06l1-.12a25.56,25.56,0,0,0,3.62,4.15l1.23.84a7.2,7.2,0,0,0,2.52.88v.12a8.41,8.41,0,0,0-1.88.56A7.76,7.76,0,0,1,55,40.8a13.64,13.64,0,0,1-2.53-2.72c-.39-.36-.59-.6-.6-.7H51.7l0,.67,0,1.54,1-.19h.06c.31,0,.67.2,1.09.66H54l0,.23q-2.56.39-2.52,1.23l-.39,1.38.19.23-.05.19h-.8l-2.08.27v-.13a8.22,8.22,0,0,0,1-2.16l-.18-.8.48-.27L50,37.5h-.06l0-.07L49.88,36l-.09-.31Z"/><path class="cls-1" d="M60.3,32c1.62.23,2.43.44,2.45.64a22.48,22.48,0,0,0,2.6,4.82,16.64,16.64,0,0,0,2.46,2.62,8.49,8.49,0,0,0,3.83,2v.06l-.06.07-.07-.06-.43.09-.24,0-1.22.14a6.76,6.76,0,0,1-3.76-1.73,13.46,13.46,0,0,1-2.82-3.51A3.44,3.44,0,0,1,62.47,36h-.06v.13A11.25,11.25,0,0,1,63,39a5.51,5.51,0,0,1-.18,2l-2,.3c-.57-.72-1.33-1.57-2.27-2.55l.08.3.07,1.1a5.29,5.29,0,0,1-.14,1.43h0c0,.17-.1.26-.22.27l-1.62-.15h-.06v-.07l.18-2-.07-.24,0-.2L56.82,39v-.13h.06l-.32-2.08h.05a2.41,2.41,0,0,1-.17-.85h.06a8.38,8.38,0,0,1,1.75-.55,9.72,9.72,0,0,0,2.48,2.86l.13.11H61l.06-.93a18.81,18.81,0,0,0-1.29-4.55h-.06A2.89,2.89,0,0,1,60.3,32Z"/><path class="cls-1" d="M75.58,36.25a12,12,0,0,0-5,3l-.74.91-1.61.11c-.08,0-.12-.05-.13-.18l.06-.05c-.17-1.52-.4-2.26-.71-2.24l-.57-.33v-.07c0-.06.15-.17.47-.34V37a4,4,0,0,0-.69-1.13L66,36l-.14-.3.06-.06v-.07L65.8,35v0l.12-.14.07.06a14,14,0,0,0,3.86-1.37A8.34,8.34,0,0,0,72.5,31.7l.8.93v.13a13.2,13.2,0,0,1-5.26,2.69l0,.13.53.69h.13a13.83,13.83,0,0,1,3.65-1.73l.71.57v.06a8.43,8.43,0,0,1-1.74.73L69,37.05a5.93,5.93,0,0,0,.5,1.14,15.2,15.2,0,0,1,5.26-2.69l1-.32c.42,0,.63.29.62.79l-.45.19Z"/><path class="cls-1" d="M73.86,31.67c1.23-.16,1.83-.31,1.82-.42q.07-1.07.42-1.08l1.77-.43v.06l-.17,1h0a28.66,28.66,0,0,0,3.93-1.31v.05L84,28.41l.07.06v.05q-.31,1.32-.72,1.35A21.79,21.79,0,0,1,78.15,32c-.58.08-.85.3-.82.66l-.44,1.7c-.07.85-.1,1.61-.11,2.28l.2.92h.12l0-.12,1.74,0v0a4.24,4.24,0,0,0-.59,1.33l-.3,0a4.07,4.07,0,0,0-1.57.6c-.4,0-.79-.61-1.17-1.9l-.2-1,.07-.06-.09-.3V36.1L75,36,75,36l0-1.17v-.07l.17-2-.36,0-.25,0-.31.08h-.12L74,32.71l-.45.1-.39-.07-.1-.45C73.12,31.92,73.39,31.72,73.86,31.67Z"/></g></g></svg>