<svg xmlns="http://www.w3.org/2000/svg" viewBox="0 0 28.35 77.33"><defs><style>.cls-1{isolation:isolate;}.cls-2{opacity:0.26;}.cls-3{opacity:0.5;mix-blend-mode:soft-light;}.cls-4{fill:#f1dfe9;}</style></defs><title>scratches</title><g class="cls-1"><g id="Layer_2" data-name="Layer 2"><g id="elevator"><g class="cls-2"><g class="cls-3"><path class="cls-4" d="M387.4,282.29c.42-.78.79-1.59,1.22-2.36s.89-1.54,1.38-2.27a29.62,29.62,0,0,1,3.33-4.16,21.32,21.32,0,0,1,4.24-3.21,15.07,15.07,0,0,1,5-1.7,17.73,17.73,0,0,0-4.94,1.84,21,21,0,0,0-4.14,3.25,28.57,28.57,0,0,0-3.37,4.07C389.14,279.2,388.28,280.75,387.4,282.29Z" transform="translate(-378.42 -236.67)"/><path class="cls-4" d="M385.59,301c.83.3,1.68.54,2.52.85s1.65.65,2.45,1a28.54,28.54,0,0,1,4.6,2.67,21,21,0,0,1,3.82,3.71A15.26,15.26,0,0,1,401.4,314a17.61,17.61,0,0,0-2.55-4.61,21.19,21.19,0,0,0-3.84-3.61,28.38,28.38,0,0,0-4.52-2.72C388.9,302.28,387.24,301.67,385.59,301Z" transform="translate(-378.42 -236.67)"/><path class="cls-4" d="M384.39,269.13a35.46,35.46,0,0,1,3.63-6.25,26.37,26.37,0,0,1,5-5.19,18.39,18.39,0,0,1,13.71-3.49l-1.81-.07-.9,0c-.3,0-.6,0-.9.07l-1.79.16-1.75.41a18.56,18.56,0,0,0-6.41,3.16,25.91,25.91,0,0,0-5,5.09A42,42,0,0,0,384.39,269.13Z" transform="translate(-378.42 -236.67)"/><path class="cls-4" d="M389.14,274.06c.1-.91,0-1.83.12-2.74a18,18,0,0,1,.4-2.73,8.61,8.61,0,0,1,1-2.57,4.07,4.07,0,0,1,2.15-1.74,4.92,4.92,0,0,1,2.77,0,11.17,11.17,0,0,1,2.55,1.06,26.07,26.07,0,0,1,4.45,3.21,32.72,32.72,0,0,0-4.53-3.06,10.89,10.89,0,0,0-2.52-1,4.78,4.78,0,0,0-2.65,0,3.86,3.86,0,0,0-2.05,1.62,8.55,8.55,0,0,0-1,2.5A37.83,37.83,0,0,0,389.14,274.06Z" transform="translate(-378.42 -236.67)"/><path class="cls-4" d="M387.48,280.19a37.49,37.49,0,0,1,.14-10.42,20.52,20.52,0,0,1,3.92-9.6,13.61,13.61,0,0,1,4-3.36,11.2,11.2,0,0,1,2.43-1,6.86,6.86,0,0,1,2.63-.15,6.05,6.05,0,0,1,4.12,3.08,13,13,0,0,1,1.55,5,16.68,16.68,0,0,1-2,10.15,10.76,10.76,0,0,1-1.64,2.06,8.51,8.51,0,0,1-2.17,1.48,6.23,6.23,0,0,1-5.14-.05,11,11,0,0,1-4-3.31,17.61,17.61,0,0,1-2.57-4.55,16.63,16.63,0,0,1-.72-10.26,16.52,16.52,0,0,0,.84,10.22,17.32,17.32,0,0,0,2.57,4.5,10.78,10.78,0,0,0,4,3.25,6.07,6.07,0,0,0,5,0,8.34,8.34,0,0,0,2.12-1.46,10.33,10.33,0,0,0,1.59-2,16.42,16.42,0,0,0,1.93-10,12.38,12.38,0,0,0-1.5-4.91,5.83,5.83,0,0,0-3.95-3A6.85,6.85,0,0,0,398,256a10.83,10.83,0,0,0-2.39,1,13.38,13.38,0,0,0-4,3.3,20.39,20.39,0,0,0-3.93,9.51A37.35,37.35,0,0,0,387.48,280.19Z" transform="translate(-378.42 -236.67)"/><path class="cls-4" d="M386.38,268.6a15.69,15.69,0,0,1,4.19-3.54,29.76,29.76,0,0,1,5-2.38,42.12,42.12,0,0,1,5.3-1.5c.9-.18,1.8-.33,2.7-.5l2.73-.32-2.71.44c-.9.18-1.8.35-2.69.54a41.58,41.58,0,0,0-5.24,1.58,29,29,0,0,0-5,2.28,23.64,23.64,0,0,0-2.26,1.54A11.83,11.83,0,0,0,386.38,268.6Z" transform="translate(-378.42 -236.67)"/><path class="cls-4" d="M387.82,271.8a14.38,14.38,0,0,1,2.62-5.19,19,19,0,0,1,4.22-4,22.85,22.85,0,0,1,5.28-2.52c.92-.34,1.89-.5,2.83-.76s1.93-.27,2.89-.41c-1,.18-1.92.33-2.87.53s-1.89.45-2.8.8a22.41,22.41,0,0,0-5.19,2.57,18.8,18.8,0,0,0-4.23,3.93A16.11,16.11,0,0,0,387.82,271.8Z" transform="translate(-378.42 -236.67)"/><path class="cls-4" d="M406.77,275.81a34.68,34.68,0,0,0-4.36,3.14,31.55,31.55,0,0,0-3.85,3.73c-2.3,2.69-4.17,6-4.36,9.55a13.58,13.58,0,0,0,.75,5.24,15.84,15.84,0,0,0,2.49,4.7,12.63,12.63,0,0,0,9.33,4.58,12.75,12.75,0,0,1-5.22-1.18,12.33,12.33,0,0,1-4.24-3.3,16.07,16.07,0,0,1-2.56-4.73,13.83,13.83,0,0,1-.8-5.33c.23-3.66,2.15-6.95,4.49-9.64A33.32,33.32,0,0,1,406.77,275.81Z" transform="translate(-378.42 -236.67)"/><path class="cls-4" d="M389.61,257.05c.79.39,1.61.73,2.4,1.14s1.56.84,2.31,1.31a28.74,28.74,0,0,1,4.26,3.2,21.48,21.48,0,0,1,3.35,4.13,15.31,15.31,0,0,1,1.85,5,17.8,17.8,0,0,0-2-4.88,20.73,20.73,0,0,0-3.37-4,28.64,28.64,0,0,0-4.18-3.24C392.75,258.68,391.17,257.88,389.61,257.05Z" transform="translate(-378.42 -236.67)"/><path class="cls-4" d="M384.82,271.69c.86-.21,1.7-.48,2.57-.68s1.73-.38,2.61-.5a29.43,29.43,0,0,1,5.31-.33,21.1,21.1,0,0,1,5.23,1,15.37,15.37,0,0,1,4.63,2.58,17.63,17.63,0,0,0-4.68-2.42,21.22,21.22,0,0,0-5.19-.89,29.15,29.15,0,0,0-5.28.24C388.27,270.9,386.55,271.31,384.82,271.69Z" transform="translate(-378.42 -236.67)"/><path class="cls-4" d="M395.65,268.11c-.23-.85-.52-1.69-.74-2.55s-.41-1.73-.55-2.6a29.5,29.5,0,0,1-.43-5.31,21.28,21.28,0,0,1,.88-5.25,15.21,15.21,0,0,1,2.48-4.67,18.21,18.21,0,0,0-2.33,4.72,21.39,21.39,0,0,0-.78,5.21,28.19,28.19,0,0,0,.35,5.27C394.79,264.68,395.23,266.39,395.65,268.11Z" transform="translate(-378.42 -236.67)"/><path class="cls-4" d="M390.41,289.1a16.71,16.71,0,0,0-2.4,4.7,21.43,21.43,0,0,0-.87,5.21,28.23,28.23,0,0,0,.33,5.28,22.84,22.84,0,0,0,1.34,5.09,3.22,3.22,0,0,0,2.21,1.18,5.64,5.64,0,0,0,2.57-.35,11.77,11.77,0,0,0,4.35-2.89,10.22,10.22,0,0,0,2.65-4.47,5.77,5.77,0,0,0-1-4.92,6.38,6.38,0,0,0-4.37-2.56,5.57,5.57,0,0,0-4.73,1.67,8.89,8.89,0,0,0-1.91,4.8,11,11,0,0,0,.37,5.21,8.69,8.69,0,0,0,3.07,4.17,9.75,9.75,0,0,0,2.3,1.27,5.16,5.16,0,0,0,2.59.11,18.82,18.82,0,0,0,5-1.76,41.18,41.18,0,0,0,4.58-2.68,41.19,41.19,0,0,1-4.55,2.73,18.46,18.46,0,0,1-5,1.83,5.29,5.29,0,0,1-2.65-.11,9,9,0,0,1-2.34-1.27,8.88,8.88,0,0,1-3.15-4.24,11.26,11.26,0,0,1-.4-5.28,9.08,9.08,0,0,1,2-4.92,5.75,5.75,0,0,1,4.91-1.75,6.54,6.54,0,0,1,4.54,2.64,6,6,0,0,1,1.07,5.12,10.4,10.4,0,0,1-2.72,4.55,11.92,11.92,0,0,1-4.44,2.93,6,6,0,0,1-2.65.35,3.42,3.42,0,0,1-2.33-1.26,22.37,22.37,0,0,1-1.34-5.17A28.48,28.48,0,0,1,387,299a21.59,21.59,0,0,1,.93-5.23A17.17,17.17,0,0,1,390.41,289.1Z" transform="translate(-378.42 -236.67)"/></g><path class="cls-4" d="M397.79,268.38c-.42.78-.79,1.59-1.22,2.36s-.89,1.54-1.38,2.27a29.62,29.62,0,0,1-3.33,4.16,21.32,21.32,0,0,1-4.24,3.21,15.54,15.54,0,0,1-5,1.7,17.73,17.73,0,0,0,4.94-1.84,21,21,0,0,0,4.14-3.25,28.57,28.57,0,0,0,3.37-4.07C396.05,271.47,396.91,269.92,397.79,268.38Z" transform="translate(-378.42 -236.67)"/><path class="cls-4" d="M399.6,249.64c-.83-.3-1.69-.54-2.52-.85s-1.65-.65-2.45-1a28.54,28.54,0,0,1-4.6-2.67,21,21,0,0,1-3.82-3.71,15.37,15.37,0,0,1-2.42-4.71,17.61,17.61,0,0,0,2.55,4.61,21.47,21.47,0,0,0,3.83,3.61,28.93,28.93,0,0,0,4.53,2.72C396.29,248.39,398,249,399.6,249.64Z" transform="translate(-378.42 -236.67)"/><path class="cls-4" d="M400.8,281.54a34.9,34.9,0,0,1-3.64,6.25,26,26,0,0,1-5,5.19,18.32,18.32,0,0,1-13.71,3.48l1.81.08.9,0c.3,0,.6-.05.9-.07l1.79-.17,1.75-.4a18.65,18.65,0,0,0,6.41-3.16,26.18,26.18,0,0,0,5-5.09A42.92,42.92,0,0,0,400.8,281.54Z" transform="translate(-378.42 -236.67)"/><path class="cls-4" d="M396.05,276.61c-.1.91,0,1.83-.12,2.74a18,18,0,0,1-.4,2.73,8.61,8.61,0,0,1-1,2.57,4.07,4.07,0,0,1-2.15,1.74,4.92,4.92,0,0,1-2.77,0,11.17,11.17,0,0,1-2.55-1.06,26.63,26.63,0,0,1-4.45-3.21,33.63,33.63,0,0,0,4.53,3.06,11.16,11.16,0,0,0,2.52,1,4.78,4.78,0,0,0,2.65,0,3.9,3.9,0,0,0,2.05-1.62,8.55,8.55,0,0,0,1-2.5A37.83,37.83,0,0,0,396.05,276.61Z" transform="translate(-378.42 -236.67)"/><path class="cls-4" d="M397.7,270.48a37.11,37.11,0,0,1-.13,10.42,20.52,20.52,0,0,1-3.92,9.6,13.61,13.61,0,0,1-4,3.36,11.73,11.73,0,0,1-2.43,1,6.86,6.86,0,0,1-2.63.15,6.05,6.05,0,0,1-4.12-3.08,13,13,0,0,1-1.55-5,16.68,16.68,0,0,1,2-10.15,10.46,10.46,0,0,1,1.64-2.06,8.26,8.26,0,0,1,2.17-1.48,6.21,6.21,0,0,1,5.13.05,11,11,0,0,1,4,3.31,17.72,17.72,0,0,1,2.57,4.54,16.67,16.67,0,0,1,.72,10.27,16.58,16.58,0,0,0-.84-10.22,17.32,17.32,0,0,0-2.57-4.5,10.86,10.86,0,0,0-4-3.25,6,6,0,0,0-5,0,8.17,8.17,0,0,0-2.12,1.46,10.78,10.78,0,0,0-1.6,2,16.49,16.49,0,0,0-1.92,10,12.43,12.43,0,0,0,1.5,4.91,5.83,5.83,0,0,0,3.95,3,6.85,6.85,0,0,0,2.55-.14,11,11,0,0,0,2.39-1,13.38,13.38,0,0,0,4-3.3,20.39,20.39,0,0,0,3.93-9.51A37,37,0,0,0,397.7,270.48Z" transform="translate(-378.42 -236.67)"/><path class="cls-4" d="M398.81,282.07a15.69,15.69,0,0,1-4.19,3.54,29,29,0,0,1-5,2.37,40.54,40.54,0,0,1-5.3,1.51c-.9.18-1.8.33-2.7.5l-2.73.32,2.71-.44c.89-.18,1.79-.35,2.69-.55a39.94,39.94,0,0,0,5.24-1.57,29.05,29.05,0,0,0,5-2.29,21.84,21.84,0,0,0,2.26-1.53A11.83,11.83,0,0,0,398.81,282.07Z" transform="translate(-378.42 -236.67)"/><path class="cls-4" d="M397.37,278.87a14.46,14.46,0,0,1-2.62,5.19,19,19,0,0,1-4.22,4,22.85,22.85,0,0,1-5.28,2.52c-.92.34-1.89.5-2.83.76s-1.93.27-2.89.41c1-.18,1.92-.33,2.87-.53s1.89-.45,2.79-.8a22.29,22.29,0,0,0,5.2-2.57,18.8,18.8,0,0,0,4.23-3.93A16.22,16.22,0,0,0,397.37,278.87Z" transform="translate(-378.42 -236.67)"/><path class="cls-4" d="M378.42,274.86a34.68,34.68,0,0,0,4.36-3.14,31.49,31.49,0,0,0,3.84-3.73c2.31-2.69,4.18-6,4.37-9.55a13.58,13.58,0,0,0-.75-5.24,15.72,15.72,0,0,0-2.49-4.7,12.65,12.65,0,0,0-9.33-4.58,12.75,12.75,0,0,1,5.22,1.18,12.39,12.39,0,0,1,4.24,3.29,16.25,16.25,0,0,1,2.56,4.74,13.8,13.8,0,0,1,.8,5.33c-.23,3.66-2.15,7-4.49,9.64A33.32,33.32,0,0,1,378.42,274.86Z" transform="translate(-378.42 -236.67)"/><path class="cls-4" d="M395.58,293.62c-.79-.4-1.61-.73-2.4-1.14s-1.56-.84-2.31-1.31a28.91,28.91,0,0,1-4.26-3.2,21.18,21.18,0,0,1-3.35-4.14,15.26,15.26,0,0,1-1.85-5,17.8,17.8,0,0,0,2,4.88,21,21,0,0,0,3.37,4A28.64,28.64,0,0,0,391,291C392.44,292,394,292.79,395.58,293.62Z" transform="translate(-378.42 -236.67)"/><path class="cls-4" d="M400.37,279c-.86.21-1.7.48-2.57.68s-1.73.38-2.61.5a29.43,29.43,0,0,1-5.31.33,21.1,21.1,0,0,1-5.23-1,15.25,15.25,0,0,1-4.63-2.58,17.93,17.93,0,0,0,4.68,2.42,21.22,21.22,0,0,0,5.19.89,29.15,29.15,0,0,0,5.28-.24C396.92,279.77,398.64,279.36,400.37,279Z" transform="translate(-378.42 -236.67)"/><path class="cls-4" d="M389.54,282.55c.23.86.52,1.7.74,2.56s.41,1.72.55,2.6a29.42,29.42,0,0,1,.43,5.31,21.21,21.21,0,0,1-.88,5.24,15.14,15.14,0,0,1-2.48,4.68,18.21,18.21,0,0,0,2.33-4.72A21.39,21.39,0,0,0,391,293a28.19,28.19,0,0,0-.35-5.27C390.4,286,390,284.28,389.54,282.55Z" transform="translate(-378.42 -236.67)"/><path class="cls-4" d="M394.78,261.57a17,17,0,0,0,2.4-4.7,21.51,21.51,0,0,0,.87-5.21,28.23,28.23,0,0,0-.33-5.28,22.84,22.84,0,0,0-1.34-5.09,3.27,3.27,0,0,0-2.21-1.19,5.78,5.78,0,0,0-2.57.36,11.77,11.77,0,0,0-4.35,2.89,10.22,10.22,0,0,0-2.65,4.47,5.74,5.74,0,0,0,1,4.91,6.29,6.29,0,0,0,4.37,2.56,5.53,5.53,0,0,0,4.73-1.66,8.92,8.92,0,0,0,1.91-4.8,11,11,0,0,0-.37-5.21,8.69,8.69,0,0,0-3.07-4.17,9.41,9.41,0,0,0-2.3-1.27,5.16,5.16,0,0,0-2.59-.11,18.82,18.82,0,0,0-5,1.76,41.18,41.18,0,0,0-4.58,2.68,41.19,41.19,0,0,1,4.55-2.73,18.46,18.46,0,0,1,5-1.83,5.18,5.18,0,0,1,2.65.11,9,9,0,0,1,2.34,1.27,8.79,8.79,0,0,1,3.14,4.24,11.12,11.12,0,0,1,.41,5.28,9.08,9.08,0,0,1-2,4.92,5.78,5.78,0,0,1-4.91,1.75,6.57,6.57,0,0,1-4.54-2.64,6,6,0,0,1-1.07-5.12,10.49,10.49,0,0,1,2.72-4.56,12,12,0,0,1,4.44-2.92,6,6,0,0,1,2.65-.35,3.44,3.44,0,0,1,2.33,1.26,22.94,22.94,0,0,1,1.34,5.16,28.64,28.64,0,0,1,.31,5.31,22.17,22.17,0,0,1-.93,5.23A17.17,17.17,0,0,1,394.78,261.57Z" transform="translate(-378.42 -236.67)"/></g></g></g></g></svg>